<svg width="278" height="368" viewBox="0 0 278 368" fill="none" xmlns="http://www.w3.org/2000/svg">
<g filter="url(#filter0_d_238_26004)">
<ellipse cx="141" cy="154" rx="86" ry="78" fill="#D9D9D9"/>
<path fill-rule="evenodd" clip-rule="evenodd" d="M141.15 0.218129C146.355 0.628371 148.957 1.72235 151.833 4.73079C154.709 7.60248 155.942 10.3374 156.49 15.3971C157.311 21.8242 157.037 22.5079 152.381 27.7043C148.409 32.0802 147.45 34.2682 147.313 39.0543C147.313 42.473 146.492 45.6182 145.122 46.8489C144.026 47.9429 141.561 48.9001 139.644 48.9001C137.863 48.9001 135.398 47.9429 134.302 46.8489C133.207 45.7549 132.248 42.473 132.248 39.7381C132.248 35.7724 131.289 33.5844 128.139 30.4393C125.811 28.2513 123.346 24.1489 122.524 21.5507C121.291 17.7218 121.428 15.5338 123.209 11.0212C124.578 7.32898 127.044 4.04705 129.783 2.26934C133.344 0.0813818 135.809 -0.32886 141.15 0.218129ZM143.205 55.0538C154.298 55.464 160.324 56.558 169.227 59.4297C175.664 61.6176 185.525 65.9935 191.14 69.4122C196.755 72.6941 205.384 79.5315 210.314 84.4544C215.245 89.3773 221.545 97.0351 224.284 101.548C227.023 106.06 230.995 113.718 233.049 118.641C235.104 123.564 237.569 130.948 238.528 135.051C239.623 139.7 240.308 150.914 240.445 186.331L244.828 188.519C247.293 189.75 251.265 192.211 253.456 194.126C255.648 195.903 259.208 200.826 265.098 212.313V291.626L269.617 296.139C273.452 300.105 274 301.609 274 308.036C274 314.326 273.452 315.967 269.891 319.523C267.7 321.848 263.865 324.172 261.674 324.719C259.482 325.266 256.332 325.403 254.826 325.266C253.319 324.993 250.443 324.035 248.252 322.941C246.06 321.711 243.458 318.429 241.678 314.6C239.213 309.13 238.939 307.216 240.171 303.25C240.993 300.652 243.595 296.686 250.032 290.259V267.969C250.032 254.158 249.484 245.816 248.663 245.816C247.841 245.816 245.787 246.637 243.869 247.594C240.445 249.235 240.308 249.782 240.445 261.542C240.445 269.063 239.623 276.858 238.254 281.37C237.021 285.473 234.83 291.353 233.186 294.361C231.68 297.37 227.571 302.84 224.147 306.395C220.723 310.087 215.108 314.737 211.684 316.925C208.26 319.113 201.823 321.984 197.303 323.352C190.044 325.54 183.607 325.813 139.096 325.813C93.6256 325.813 88.4212 325.54 81.5733 323.215C77.4645 321.848 71.7123 319.523 68.8362 318.155C66.097 316.651 60.4817 312.275 56.5099 308.446C52.4011 304.481 47.4706 297.917 45.5532 293.951C43.4988 290.122 40.8966 283.011 39.801 278.225C38.7053 273.576 37.7466 264.961 37.7466 259.081C37.7466 248.825 37.6096 248.551 33.9117 247.184C31.8574 246.363 29.9399 246.09 29.5291 246.637C29.1182 247.047 28.8443 257.029 28.8443 290.396L33.3639 295.045C35.8292 297.643 38.1575 301.335 38.7053 303.25C39.1162 305.164 39.1162 308.857 38.5683 311.455C38.1574 314.053 36.24 317.745 34.4596 319.66C32.6791 321.574 29.1182 323.762 26.516 324.582C23.6398 325.54 20.3528 325.54 17.2028 324.719C14.6006 324.036 11.0397 322.258 9.25921 320.617C7.6157 318.976 5.56133 315.42 4.73958 312.822C3.91782 310.087 3.78087 306.258 4.3287 303.934C4.87653 301.609 7.06787 298.054 12.8201 291.626L13.368 251.97C13.7788 217.646 14.1897 211.629 16.2441 206.843C17.6137 203.835 21.0376 199.049 23.7768 196.177C26.516 193.305 30.6247 190.16 37.0618 187.425L37.8835 163.631C38.7053 143.392 39.3901 137.923 42.4032 127.53C44.4575 120.692 48.7033 110.847 51.8533 105.65C55.0033 100.454 61.5774 91.8388 66.5079 86.6424C71.4384 81.5827 79.7928 74.4719 84.9973 70.9164C91.7082 66.4038 98.6931 63.2586 108.417 60.3869C115.95 58.0622 123.62 55.8742 125.537 55.464C127.317 54.917 135.261 54.7803 143.205 55.0538ZM98.8301 96.4882C93.6256 99.2231 87.1886 104.009 84.5864 107.018C81.8472 110.026 77.8754 116.453 75.5471 121.376C71.8492 129.307 71.4384 131.632 71.3014 143.939C71.3014 155.563 71.7123 158.435 74.3145 163.358C76.6428 167.733 79.108 170.058 83.9016 172.246C90.3386 175.391 91.4343 175.391 139.781 175.391H189.086C198.81 169.921 202.645 166.366 204.562 163.084C207.438 158.161 207.712 156.247 207.164 142.572C206.753 128.897 206.342 126.709 202.508 119.325C200.179 114.812 195.66 108.385 192.373 105.103C189.086 101.958 181.964 97.1719 176.759 94.7104C171.555 92.249 163.885 89.514 159.914 88.6936C156.079 87.8731 146.492 87.1893 138.822 87.3261C131.015 87.3261 121.017 88.2833 116.498 89.3773C111.978 90.4713 104.034 93.7532 98.8301 96.4882ZM153.887 217.646C154.024 219.287 154.846 221.338 155.805 222.296C156.764 223.253 158.818 223.937 160.461 223.937C161.968 223.937 163.885 223.116 164.844 222.296C165.803 221.338 166.488 219.287 166.488 217.783C166.488 216.279 165.803 214.227 164.844 213.27C163.885 212.313 161.831 211.629 160.187 211.629C158.681 211.629 156.627 212.313 155.531 213.27C154.435 214.227 153.75 216.142 153.887 217.646ZM174.431 217.646C174.568 219.287 175.39 221.338 176.349 222.296C177.307 223.253 179.362 223.937 181.005 223.937C182.512 223.937 184.429 223.116 185.388 222.296C186.347 221.338 187.031 219.287 187.031 217.783C187.031 216.279 186.347 214.227 185.388 213.27C184.429 212.313 182.375 211.629 180.731 211.629C179.225 211.629 177.17 212.313 176.075 213.27C174.979 214.227 174.294 216.142 174.431 217.646ZM196.071 220.928C197.029 222.296 199.358 223.253 202.234 223.253C206.343 223.253 206.89 222.843 207.301 219.15C207.438 216.826 206.89 214.227 205.932 213.27C204.973 212.313 202.782 211.493 201.001 211.629C199.084 211.629 197.303 212.997 196.208 215.185C194.975 217.783 194.975 219.287 196.071 220.928ZM139.233 331.967C175.664 331.967 178.814 332.104 179.636 334.292C180.046 335.659 179.636 338.531 178.677 340.855C177.581 343.043 174.02 347.009 170.596 349.744C167.172 352.479 161.009 355.898 156.9 357.265C151.97 359.043 145.807 360 139.096 360C133.07 360 125.948 359.043 121.976 357.675C118.141 356.308 112.115 352.616 108.417 349.47C104.719 346.189 100.884 341.676 99.9257 339.488C99.104 337.3 98.5561 334.565 98.967 333.608C99.5149 332.377 108.828 331.967 139.233 331.967ZM94.1735 126.846C94.8583 126.846 97.4605 127.803 100.063 128.897C103.35 130.265 105.541 132.453 107.048 136.008C108.143 138.88 108.828 142.709 108.417 144.623C108.006 146.538 106.226 149.409 104.582 151.05C102.802 152.691 99.9257 154.606 98.0083 155.289C95.68 156.247 93.3517 156.11 90.4756 155.016C88.1473 154.059 84.9973 151.461 83.2168 149.273C81.5733 147.085 80.2037 143.803 80.2037 141.888C80.2037 139.974 81.0255 136.965 81.9842 135.051C82.9429 133.136 85.819 130.538 88.4212 129.307C91.0234 127.94 93.6256 126.846 94.1735 126.846ZM186.347 127.803C187.853 128.214 190.455 129.307 192.236 130.401C193.879 131.495 196.208 134.504 197.303 137.102C199.221 141.478 199.084 142.298 197.029 146.948C195.66 149.82 193.058 152.965 191.14 153.922C189.086 154.879 185.388 155.426 182.238 155.016C179.225 154.606 175.664 153.238 174.294 151.871C172.925 150.503 171.418 146.948 171.007 143.939C170.322 139.837 170.733 137.512 172.651 134.641C174.02 132.453 177.033 129.854 179.362 128.897C181.69 127.803 184.84 127.256 186.347 127.803Z" fill="url(#paint0_radial_238_26004)"/>
</g>
<defs>
<filter id="filter0_d_238_26004" x="0" y="0" width="278" height="368" filterUnits="userSpaceOnUse" color-interpolation-filters="sRGB">
<feFlood flood-opacity="0" result="BackgroundImageFix"/>
<feColorMatrix in="SourceAlpha" type="matrix" values="0 0 0 0 0 0 0 0 0 0 0 0 0 0 0 0 0 0 127 0" result="hardAlpha"/>
<feOffset dy="4"/>
<feGaussianBlur stdDeviation="2"/>
<feComposite in2="hardAlpha" operator="out"/>
<feColorMatrix type="matrix" values="0 0 0 0 0 0 0 0 0 0 0 0 0 0 0 0 0 0 0.25 0"/>
<feBlend mode="normal" in2="BackgroundImageFix" result="effect1_dropShadow_238_26004"/>
<feBlend mode="normal" in="SourceGraphic" in2="effect1_dropShadow_238_26004" result="shape"/>
</filter>
<radialGradient id="paint0_radial_238_26004" cx="0" cy="0" r="1" gradientUnits="userSpaceOnUse" gradientTransform="translate(136 188) rotate(89.0008) scale(172.026 129.02)">
<stop stop-color="#3AA0F9"/>
<stop offset="1" stop-color="#09468E"/>
</radialGradient>
</defs>
</svg>
